<svg width="137" height="17" viewBox="0 0 137 17" fill="none" xmlns="http://www.w3.org/2000/svg">
<path d="M31.8237 6.16663H20.3033L19.8905 6.4953V16.6653H23.0598V12.837L23.3504 12.5515H31.8237C33.9665 12.5515 34.9523 11.9777 34.9523 10.5067V8.16829C34.9523 6.73776 33.9665 6.16663 31.8237 6.16663ZM31.8237 9.9248C31.8237 10.6199 31.3702 10.733 30.3409 10.733H23.4047L23.0734 10.4474V8.29222L23.364 8.00665H30.3626C31.3511 8.00665 31.8454 8.12788 31.8454 8.81486V9.91672L31.8237 9.9248Z" fill="white"/>
<path d="M40.8075 8.08749L43.5668 12.0908L43.4011 12.4599H37.3068L35.7426 14.378H44.8024L45.4597 14.7471L46.861 16.6653H50.5246L42.4967 6.04541" fill="white"/>
<path d="M77.1666 14.6232V11.7649L77.4979 11.4793H83.6329V9.68237H73.9158V16.6653H88.2443V14.8684H77.5386" fill="white"/>
<path d="M88.3692 6.16934H73.9158V8.1306H88.3692V6.16934Z" fill="white"/>
<path d="M57.8165 8.04708H69.4699C69.3043 6.57614 68.3565 6.16125 66.0508 6.16125H57.6915C55.0572 6.16125 54.2316 6.65157 54.2316 8.65323V14.2137C54.2316 16.175 55.0464 16.7057 57.6915 16.7057H66.0426C68.3891 16.7057 69.3016 16.2558 69.3776 14.7444H57.8083L57.477 14.4185V8.29223" fill="white"/>
<path d="M12.0663 10.2508H3.62558L3.37845 9.96522V8.1683L3.62558 7.96355H15.0319L15.1949 7.59716C14.8255 6.61653 13.7962 6.12622 11.9359 6.12622H3.99493C1.36061 6.12622 0.537727 6.61653 0.537727 8.6182V9.80357C0.537727 11.7621 1.35246 12.2956 3.99493 12.2956H12.4383L12.6855 12.5407V14.4265L12.4791 14.7121H0.29059C0.29059 14.7121 0 14.8764 0 14.9168C0.2064 16.307 1.15421 16.6734 3.41918 16.6734H12.0663C14.7006 16.6734 15.5669 16.183 15.5669 14.1814V12.7428C15.5669 10.7842 14.7006 10.2508 12.0663 10.2508Z" fill="white"/>
<path d="M97.4698 6.12622H92.6927L92.4456 6.61653L97.7169 10.4555C98.7055 9.88439 99.8162 9.31326 100.976 8.73943" fill="white"/>
<path d="M101.753 13.3166L106.405 16.6653H111.182L111.388 16.2154L104.471 11.191C103.564 11.8861 102.616 12.5811 101.755 13.3166" fill="white"/>
<path d="M96.7692 16.6653H92.4456L92.0763 16.0941C94.9985 13.2735 108.099 1.27697 136.547 0C136.547 0 112.705 0.808209 96.7692 16.6653Z" fill="#B2B0B2"/>
</svg>
